<!-- <svg xmlns="http://www.w3.org/2000/svg" width="38" height="22" viewBox="0 0 38 22">
    <g fill="none" fill-rule="evenodd">
        <path fill="#FFF" d="M0 0v1.746h1.64V6h2.285V1.746h1.64V0H0zm7.407 0l-2.32 6h2.314l1.26-3.631L9.929 6h2.31L9.925 0H7.407zm4.356 0v1.746h1.635V6h2.284V1.746h1.642V0h-5.56zm7.4 0L16.84 6h2.319l1.264-3.631L21.685 6H24l-2.315-6h-2.522zM0 15.008C0 10.951 2.191 9 6.02 9c2.325 0 3.845.822 4.633 1.85.154.204.212.375.212.563 0 .497-.462.907-1.039.907-.269 0-.538-.102-.789-.342-.786-.77-1.615-1.197-3.018-1.197-2.558 0-3.712 1.403-3.712 4.227 0 2.995 1.154 4.211 3.712 4.211 1.422 0 2.192-.29 3.115-1.13.308-.273.557-.376.827-.376.577 0 1.039.411 1.039.924a.789.789 0 0 1-.193.514C9.884 20.246 8.077 21 6.02 21 2.191 21 0 19.203 0 15.008M18.042 19.097a.93.93 0 0 1 .958.95c0 .548-.394.953-.958.953h-5.066c-.566 0-.976-.423-.976-.987v-9.991c0-.564.445-1.022.993-1.022s.992.458.992 1.022v9.075h4.057zM23 19.94c0 .585-.448 1.06-1.001 1.06-.551 0-.999-.475-.999-1.06v-6.88c0-.584.448-1.06.999-1.06.553 0 1.001.476 1.001 1.06v6.88zM36.963 22c-.277 0-.536-.108-.73-.302L34.836 20.3l-.405.246a5.714 5.714 0 0 1-.254.147l-.034.016a6.583 6.583 0 0 1-1.967.647 6.062 6.062 0 0 1-.937.074 6.541 6.541 0 0 1-1.548-.191 6.42 6.42 0 0 1-2.16-1.03 6.073 6.073 0 0 1-1.62-1.756 6.433 6.433 0 0 1-.304-.545 6.173 6.173 0 0 1-.517-1.641l-.01-.059-.012-.068-.013-.1a6.343 6.343 0 0 1-.056-.822 6.264 6.264 0 0 1 .192-1.523 6.203 6.203 0 0 1 1.048-2.154 6.303 6.303 0 0 1 1.78-1.617c.267-.168.554-.316.855-.442a6.438 6.438 0 0 1 1.47-.413 6.163 6.163 0 0 1 2.507.14l.019.003c.064.019.126.034.185.054l.02.006a6.237 6.237 0 0 1 3.207 2.346c.096.136.176.26.244.378.32.53.56 1.097.71 1.684.06.237.108.49.14.755a6.7 6.7 0 0 1-.136 2.293 6.216 6.216 0 0 1-.704 1.699l-.242.405 1.398 1.402c.41.411.41 1.054 0 1.465a1.028 1.028 0 0 1-.73.302M31.29 10.703a4.46 4.46 0 0 0-.68.052 4.765 4.765 0 0 0-1.712.618l-.014.008c-.52.334-.939.72-1.28 1.182a4.302 4.302 0 0 0-.757 1.573 4.049 4.049 0 0 0-.098 1.747c.093.614.293 1.159.61 1.664.3.493.708.933 1.178 1.273a4.505 4.505 0 0 0 4.434.554 4.431 4.431 0 0 0 1.887-1.503c.337-.451.584-.976.731-1.562.143-.596.173-1.19.09-1.767-.194-1.2-.815-2.25-1.75-2.954a4.342 4.342 0 0 0-2.639-.885"/>
        <path fill="#FF1744" d="M23.637 9.882a1.24 1.24 0 0 1-1.754 1.754l-1.52-1.52a1.24 1.24 0 0 1 1.753-1.753l1.521 1.52z"/>
    </g>
</svg> -->

<svg width="120" height="25" viewBox="0 0 96 20" fill="none" xmlns="http://www.w3.org/2000/svg">
<path d="M0.0397949 14.3359C0.0397949 18.0067 1.746 19.5787 4.72494 19.5787C6.32915 19.5787 7.73713 18.918 8.45443 17.9601C8.54423 17.8393 8.6052 17.6896 8.6052 17.51C8.6052 17.0632 8.2449 16.7029 7.79589 16.7029C7.58525 16.7029 7.39235 16.7927 7.15288 17.0311C6.43447 17.765 5.83359 18.0189 4.72605 18.0189C2.73603 18.0189 1.83691 16.9557 1.83691 14.3348C1.83691 11.8636 2.73603 10.6386 4.72605 10.6386C5.81917 10.6386 6.46552 11.0111 7.07749 11.6863C7.27261 11.8947 7.48214 11.9845 7.69057 11.9845C8.14068 11.9845 8.49878 11.6264 8.49878 11.1918C8.49878 11.0266 8.45443 10.8769 8.3347 10.6985C7.72161 9.79934 6.53758 9.07983 4.72605 9.07983C1.74711 9.07983 0.0409034 10.7872 0.0409034 14.3348" fill="white"/>
<path d="M10.0122 10.0386V18.5297C10.0122 19.0098 10.3692 19.3679 10.8648 19.3679H15.296C15.7883 19.3679 16.1342 19.0242 16.1342 18.5586C16.1342 18.0929 15.7894 17.7504 15.296 17.7504H11.7472V10.0375C11.7472 9.55968 11.3592 9.16943 10.8792 9.16943C10.3991 9.16943 10.0122 9.55968 10.0122 10.0375" fill="white"/>
<path d="M17.3613 12.8601V18.5009C17.3613 18.9788 17.7516 19.369 18.2283 19.369C18.705 19.369 19.0997 18.9788 19.0997 18.5009V12.8601C19.0997 12.3801 18.7094 11.991 18.2283 11.991C17.7471 11.991 17.3613 12.3801 17.3613 12.8601Z" fill="white"/>
<path d="M31.1862 18.3513L30.0898 17.2559L30.245 16.9954C30.5177 16.5398 30.7184 16.0575 30.8403 15.5608C30.9889 14.9355 31.0277 14.2859 30.9556 13.6284C30.9301 13.4145 30.8902 13.1994 30.837 12.991C30.7106 12.4987 30.5088 12.0209 30.2372 11.5697C30.1696 11.4566 30.102 11.3524 30.0299 11.2515C29.3669 10.3136 28.4035 9.61071 27.3237 9.27479L27.3026 9.26703C27.2738 9.25816 27.2439 9.24929 27.2139 9.24153C27.1918 9.23599 27.1696 9.22933 27.1397 9.22046L27.1286 9.21825C26.6951 9.10295 26.245 9.04419 25.7893 9.04419C25.5199 9.04419 25.2572 9.06304 25.0088 9.10073C24.5754 9.16947 24.1574 9.28698 23.766 9.44995C23.5077 9.55749 23.2638 9.68388 23.0432 9.82246C22.4645 10.1717 21.9589 10.6296 21.5377 11.185C21.1197 11.7415 20.8215 12.3524 20.6519 13.0021C20.6297 13.0908 20.6075 13.1839 20.5831 13.3025C20.521 13.6284 20.49 13.9599 20.49 14.2881C20.49 14.5131 20.5055 14.746 20.5366 14.981L20.5476 15.0586C20.5487 15.0752 20.551 15.0896 20.5543 15.1085L20.5654 15.1717C20.6474 15.6562 20.7949 16.1218 21.0033 16.5575C21.082 16.716 21.1685 16.8701 21.2594 17.0154C21.6131 17.5952 22.0742 18.0941 22.6297 18.4987C23.1851 18.9023 23.7993 19.1939 24.4567 19.3668C25.1685 19.5398 25.8747 19.5741 26.5565 19.4655C26.9833 19.3978 27.4068 19.2792 27.8137 19.1096C27.9745 19.0409 28.1031 18.981 28.2139 18.9222L28.2483 18.9067C28.3137 18.8712 28.3858 18.8302 28.4645 18.7825L28.725 18.6251L29.8193 19.7182C30.0022 19.9001 30.245 19.9998 30.5033 19.9998C30.7616 19.9998 31.0033 19.9001 31.1862 19.7171C31.5687 19.3347 31.5687 18.7338 31.1862 18.3502V18.3513ZM29.2605 15.1617C29.1408 15.6307 28.9434 16.0519 28.6718 16.4145C28.2849 16.95 27.7616 17.3668 27.1563 17.6185C26.8924 17.7293 26.6075 17.8092 26.3104 17.8546C26.1341 17.8812 25.9512 17.8945 25.7649 17.8945C24.9811 17.8945 24.2317 17.6451 23.5942 17.1739H23.5931C23.2162 16.9023 22.8902 16.5497 22.6474 16.1539C22.3924 15.7493 22.2328 15.3136 22.1574 14.8202C22.0798 14.3657 22.1075 13.8834 22.2361 13.4233C22.3536 12.9599 22.5576 12.5364 22.8448 12.1639C23.1175 11.7947 23.4545 11.4843 23.8714 11.2171L23.8836 11.2105C24.0299 11.1218 24.1951 11.0375 24.3747 10.9621C24.6552 10.8457 24.9534 10.7626 25.2616 10.7138C25.4434 10.6861 25.6275 10.6728 25.8082 10.6728C26.5787 10.6728 27.3115 10.9178 27.9268 11.3812C28.6751 11.9444 29.174 12.7859 29.3315 13.7482C29.3991 14.2083 29.3747 14.685 29.2605 15.1628V15.1617Z" fill="white"/>
<path d="M17.0419 8.54441C16.7015 8.88254 16.7015 9.43243 17.0419 9.77057L18.1062 10.836C18.4454 11.1752 18.9953 11.1752 19.3346 10.836C19.6738 10.4967 19.6738 9.94685 19.3346 9.60649L18.2703 8.54441C18.1018 8.37368 17.8789 8.29053 17.6572 8.29053C17.4355 8.29053 17.2115 8.37478 17.043 8.54441" fill="url(#paint0_linear_592_55164)"/>
<path fill-rule="evenodd" clip-rule="evenodd" d="M5.77716 1.79268V0H0V1.79268H1.6929V6.07539H4.08315V1.79268H5.77605H5.77716ZM8.76607 2.49002L7.57095 6.07539H5.18071L7.47118 0H10.061L12.3514 6.07539H9.9612L8.76607 2.49002ZM17.5299 1.79268V0H11.7528V1.79268H13.4457V6.07539H15.8359V1.79268H17.5288H17.5299ZM20.5188 2.49002L19.3237 6.07539H16.9335L19.2239 0H21.8137L24.1042 6.07539H21.714L20.5188 2.49002Z" fill="white"/>
<path d="M35.7792 10.8626V13.3992H40.7271V15.2074H35.7792V19.3848H33.8169V9.12427H41.3579V10.8626H35.7792Z" fill="url(#paint1_linear_592_55164)"/>
<path d="M39.6763 19.3859L44.9191 9.13867H45.1153L50.3581 19.3859H48.2273L47.4279 17.7739H42.592L41.8071 19.3859H39.6763ZM43.5443 16.0633H46.4734L45.0155 12.9657L43.5432 16.0633H43.5443Z" fill="url(#paint2_linear_592_55164)"/>
<path d="M50.5954 18.04L51.6608 16.4702C52.1741 16.8261 52.7051 17.1321 53.2517 17.3882C53.7982 17.6454 54.3703 17.774 54.969 17.774C55.2861 17.774 55.5665 17.7341 55.8104 17.6542C56.0532 17.5755 56.2594 17.4724 56.4269 17.346C56.5954 17.2196 56.7217 17.0755 56.8049 16.9114C56.8892 16.7485 56.9313 16.5866 56.9313 16.4281C56.9313 16.223 56.8681 16.0478 56.7417 15.9026C56.6153 15.7573 56.4468 15.6387 56.2373 15.5456C56.0266 15.4525 55.7794 15.3726 55.4945 15.3072C55.2096 15.2418 54.9124 15.1808 54.6042 15.1254C54.3991 15.0877 54.1608 15.0434 53.8892 14.9924C53.6175 14.9414 53.3382 14.8715 53.0477 14.7817C52.7583 14.693 52.4734 14.5766 52.1929 14.4314C51.9124 14.2862 51.6608 14.1043 51.4357 13.8848C51.2118 13.6653 51.0311 13.4037 50.8958 13.0999C50.7606 12.7961 50.6929 12.4392 50.6929 12.0278C50.6929 11.4303 50.8138 10.9325 51.0577 10.5345C51.3005 10.1376 51.6109 9.82496 51.99 9.59547C52.3681 9.36709 52.7894 9.20523 53.2517 9.1121C53.714 9.01897 54.1608 8.97241 54.5898 8.97241C55.0189 8.97241 55.4025 9.00013 55.7395 9.05667C56.0765 9.11321 56.3892 9.19525 56.6785 9.30168C56.9679 9.40922 57.2506 9.54447 57.5266 9.70855C57.8027 9.87263 58.0987 10.0655 58.4169 10.2906L57.3237 11.8327C56.8382 11.4968 56.3703 11.2396 55.9224 11.0622C55.4734 10.8848 55.0022 10.7961 54.5067 10.7961C54.3382 10.7961 54.1464 10.8172 53.9324 10.8593C53.7173 10.9015 53.5144 10.9691 53.3226 11.0622C53.1308 11.1553 52.9723 11.2751 52.8459 11.4192C52.7195 11.5644 52.6563 11.7396 52.6563 11.9447C52.6563 12.1498 52.7306 12.3227 52.8803 12.4635C53.03 12.6032 53.2218 12.7207 53.4546 12.8139C53.6885 12.907 53.9457 12.9868 54.2251 13.0522C54.5056 13.1176 54.7761 13.1831 55.0377 13.2485C55.2339 13.295 55.4657 13.3416 55.7317 13.3882C55.9978 13.4347 56.2739 13.5001 56.5588 13.5844C56.8437 13.6686 57.1264 13.7806 57.4069 13.9203C57.6874 14.06 57.9368 14.2407 58.1563 14.4602C58.3759 14.6797 58.5532 14.9502 58.6885 15.2729C58.8237 15.5955 58.8914 15.9857 58.8914 16.4436C58.8914 16.9768 58.7982 17.4392 58.6109 17.8316C58.4235 18.2241 58.1575 18.5489 57.8116 18.8061C57.4657 19.0633 57.0543 19.2573 56.5776 19.3882C56.1009 19.519 55.5732 19.5844 54.9934 19.5844C54.4612 19.5844 53.9912 19.5445 53.5843 19.4658C53.1774 19.387 52.806 19.2784 52.4701 19.1431C52.1342 19.0079 51.816 18.8471 51.5166 18.6598C51.2173 18.4724 50.9091 18.2673 50.592 18.0434L50.5954 18.04Z" fill="url(#paint3_linear_592_55164)"/>
<path d="M69.1874 9.12549V19.386H67.225V15.3073H62.1652V19.386H60.2029V9.12549H62.1652V13.5689H67.225V9.12549H69.1874Z" fill="url(#paint4_linear_592_55164)"/>
<path d="M72.8183 19.3859H70.856V9.13867H72.8183V19.3859Z" fill="url(#paint5_linear_592_55164)"/>
<path d="M79.5744 19.5822C78.846 19.5822 78.1586 19.4425 77.5134 19.162C76.8681 18.8815 76.3061 18.5012 75.8238 18.0201C75.3426 17.5389 74.9613 16.9757 74.6819 16.3316C74.4014 15.6864 74.2617 14.9957 74.2617 14.2573C74.2617 13.519 74.4014 12.8394 74.6819 12.1897C74.9624 11.54 75.3426 10.9746 75.8238 10.4935C76.305 10.0123 76.8681 9.63206 77.5134 9.35157C78.1586 9.07109 78.8449 8.9314 79.5744 8.9314C80.3038 8.9314 81.0045 9.07109 81.6486 9.35157C82.2939 9.63206 82.856 10.0134 83.3382 10.4935C83.8194 10.9746 84.2007 11.54 84.4801 12.1897C84.7606 12.8394 84.9003 13.529 84.9003 14.2573C84.9003 14.9857 84.7606 15.6875 84.4801 16.3316C84.1996 16.9769 83.8194 17.5389 83.3382 18.0201C82.8571 18.5012 82.2939 18.8826 81.6486 19.162C81.0034 19.4425 80.3127 19.5822 79.5744 19.5822ZM79.581 10.7651C79.1143 10.7651 78.6786 10.8616 78.2728 11.0522C77.867 11.244 77.5123 11.499 77.2096 11.8161C76.9069 12.1343 76.6664 12.5057 76.489 12.9303C76.3116 13.356 76.2229 13.7973 76.2229 14.2551C76.2229 14.713 76.3116 15.1664 76.489 15.5866C76.6664 16.0068 76.9058 16.3782 77.2096 16.7008C77.5123 17.0234 77.867 17.2806 78.2728 17.4713C78.6786 17.6631 79.1143 17.7584 79.581 17.7584C80.0477 17.7584 80.4834 17.6631 80.8892 17.4713C81.295 17.2795 81.6486 17.0223 81.9524 16.7008C82.2551 16.3782 82.4956 16.0068 82.673 15.5866C82.8504 15.1664 82.9391 14.7219 82.9391 14.2551C82.9391 13.7884 82.8504 13.356 82.673 12.9303C82.4956 12.5057 82.2562 12.1343 81.9524 11.8161C81.6497 11.499 81.295 11.244 80.8892 11.0522C80.4834 10.8604 80.0477 10.7651 79.581 10.7651Z" fill="url(#paint6_linear_592_55164)"/>
<path d="M95.063 19.3859L88.3202 13.2883V19.3859H86.3579V9.13867H86.5686L93.3113 15.3349V9.13867H95.2737V19.3859H95.0641H95.063Z" fill="url(#paint7_linear_592_55164)"/>
<defs>
<linearGradient id="paint0_linear_592_55164" x1="17.0419" y1="8.54441" x2="20.7714" y2="12.2728" gradientUnits="userSpaceOnUse">
<stop stop-color="#FF0080"/>
<stop offset="0.5" stop-color="#7B32ED"/>
<stop offset="1" stop-color="#00ABE9"/>
</linearGradient>
<linearGradient id="paint1_linear_592_55164" x1="33.0819" y1="9.74955" x2="85.4366" y2="62.1054" gradientUnits="userSpaceOnUse">
<stop stop-color="#FF0080"/>
<stop offset="0.5" stop-color="#7B32ED"/>
<stop offset="1" stop-color="#00ABE9"/>
</linearGradient>
<linearGradient id="paint2_linear_592_55164" x1="36.7461" y1="8.61317" x2="81.3669" y2="53.2351" gradientUnits="userSpaceOnUse">
<stop stop-color="#FF0080"/>
<stop offset="0.5" stop-color="#7B32ED"/>
<stop offset="1" stop-color="#00ABE9"/>
</linearGradient>
<linearGradient id="paint3_linear_592_55164" x1="35.4989" y1="-4.84244" x2="91.0976" y2="50.7562" gradientUnits="userSpaceOnUse">
<stop stop-color="#FF0080"/>
<stop offset="0.5" stop-color="#7B32ED"/>
<stop offset="1" stop-color="#00ABE9"/>
</linearGradient>
<linearGradient id="paint4_linear_592_55164" x1="31.5565" y1="-18.8834" x2="96.6408" y2="46.202" gradientUnits="userSpaceOnUse">
<stop stop-color="#FF0080"/>
<stop offset="0.5" stop-color="#7B32ED"/>
<stop offset="1" stop-color="#00ABE9"/>
</linearGradient>
<linearGradient id="paint5_linear_592_55164" x1="-46.6341" y1="-104.208" x2="142.411" y2="84.8373" gradientUnits="userSpaceOnUse">
<stop stop-color="#FF0080"/>
<stop offset="0.5" stop-color="#7B32ED"/>
<stop offset="1" stop-color="#00ABE9"/>
</linearGradient>
<linearGradient id="paint6_linear_592_55164" x1="47.1874" y1="-18.1384" x2="90.1431" y2="24.8172" gradientUnits="userSpaceOnUse">
<stop stop-color="#FF0080"/>
<stop offset="0.5" stop-color="#7B32ED"/>
<stop offset="1" stop-color="#00ABE9"/>
</linearGradient>
<linearGradient id="paint7_linear_592_55164" x1="29.491" y1="-47.0631" x2="94.8003" y2="18.2473" gradientUnits="userSpaceOnUse">
<stop stop-color="#FF0080"/>
<stop offset="0.5" stop-color="#7B32ED"/>
<stop offset="1" stop-color="#00ABE9"/>
</linearGradient>
</defs>
</svg>
